<mxfile host="app.diagrams.net" modified="2023-09-02T03:41:12.171Z" agent="Mozilla/5.0 (Windows NT 10.0; Win64; x64) AppleWebKit/537.36 (KHTML, like Gecko) Chrome/116.0.0.0 Safari/537.36" etag="mtGDF6KSlW_GSMlw0N2y" version="21.7.2" type="github">
  <diagram name="ページ1" id="dE1Zl4kCSqn2A6MVBedl">
    <mxGraphModel dx="574" dy="303" grid="1" gridSize="10" guides="1" tooltips="1" connect="1" arrows="1" fold="1" page="1" pageScale="1" pageWidth="827" pageHeight="1169" math="0" shadow="0">
      <root>
        <mxCell id="0" />
        <mxCell id="1" parent="0" />
        <mxCell id="DGn0Or9o8jNlxVEohx8X-1" value="Throwable" style="html=1;whiteSpace=wrap;" parent="1" vertex="1">
          <mxGeometry x="330" y="150" width="220" height="50" as="geometry" />
        </mxCell>
        <mxCell id="DGn0Or9o8jNlxVEohx8X-5" value="RuntimeException" style="html=1;whiteSpace=wrap;" parent="1" vertex="1">
          <mxGeometry x="480" y="340" width="220" height="50" as="geometry" />
        </mxCell>
        <mxCell id="DGn0Or9o8jNlxVEohx8X-6" value="Exception" style="html=1;whiteSpace=wrap;" parent="1" vertex="1">
          <mxGeometry x="480" y="250" width="220" height="50" as="geometry" />
        </mxCell>
        <mxCell id="DGn0Or9o8jNlxVEohx8X-7" value="Error" style="html=1;whiteSpace=wrap;" parent="1" vertex="1">
          <mxGeometry x="180" y="250" width="220" height="50" as="geometry" />
        </mxCell>
        <mxCell id="P8rsXCHMBAQgPk4Lis3c-1" value="Extends" style="endArrow=block;endSize=16;endFill=0;html=1;rounded=0;entryX=0.5;entryY=1;entryDx=0;entryDy=0;exitX=0.5;exitY=0;exitDx=0;exitDy=0;" edge="1" parent="1" source="DGn0Or9o8jNlxVEohx8X-7" target="DGn0Or9o8jNlxVEohx8X-1">
          <mxGeometry width="160" relative="1" as="geometry">
            <mxPoint x="350" y="330" as="sourcePoint" />
            <mxPoint x="510" y="330" as="targetPoint" />
            <Array as="points">
              <mxPoint x="290" y="230" />
              <mxPoint x="440" y="230" />
            </Array>
          </mxGeometry>
        </mxCell>
        <mxCell id="P8rsXCHMBAQgPk4Lis3c-2" value="Extends" style="endArrow=block;endSize=16;endFill=0;html=1;rounded=0;exitX=0.5;exitY=0;exitDx=0;exitDy=0;" edge="1" parent="1" source="DGn0Or9o8jNlxVEohx8X-6">
          <mxGeometry width="160" relative="1" as="geometry">
            <mxPoint x="300" y="260" as="sourcePoint" />
            <mxPoint x="440" y="200" as="targetPoint" />
            <Array as="points">
              <mxPoint x="590" y="230" />
              <mxPoint x="440" y="230" />
            </Array>
          </mxGeometry>
        </mxCell>
        <mxCell id="P8rsXCHMBAQgPk4Lis3c-4" value="Extends" style="endArrow=block;endSize=16;endFill=0;html=1;rounded=0;entryX=0.5;entryY=1;entryDx=0;entryDy=0;exitX=0.5;exitY=0;exitDx=0;exitDy=0;" edge="1" parent="1" source="DGn0Or9o8jNlxVEohx8X-5" target="DGn0Or9o8jNlxVEohx8X-6">
          <mxGeometry width="160" relative="1" as="geometry">
            <mxPoint x="470" y="330" as="sourcePoint" />
            <mxPoint x="630" y="330" as="targetPoint" />
          </mxGeometry>
        </mxCell>
      </root>
    </mxGraphModel>
  </diagram>
</mxfile>
